<?xml version="1.0" encoding="utf-8"?>
<!-- Generator: Adobe Illustrator 18.0.0, SVG Export Plug-In . SVG Version: 6.00 Build 0)  -->
<!DOCTYPE svg PUBLIC "-//W3C//DTD SVG 1.1//EN" "http://www.w3.org/Graphics/SVG/1.1/DTD/svg11.dtd">
<svg version="1.1" id="Layer_1" xmlns="http://www.w3.org/2000/svg" xmlns:xlink="http://www.w3.org/1999/xlink" x="0px" y="0px"
	 viewBox="0 0 70 70" enable-background="new 0 0 70 70" xml:space="preserve">
<g>
	<g>
		<path fill="none" stroke="#05A8F3" stroke-width="2" stroke-miterlimit="10" d="M5.2,13.5c0,1.5,1.2,2.7,2.7,2.7h59v-5.4h-59
			C6.4,10.8,5.2,12,5.2,13.5z"/>
		<path fill="#FFFFFF" d="M5.2,13.5c0,1.5,1.2,2.7,2.7,2.7h59v-5.4h-59C6.4,10.8,5.2,12,5.2,13.5z"/>
	</g>
</g>
<g>
	<path fill="none" stroke="#05A8F3" stroke-width="2" stroke-miterlimit="10" d="M2.4,13.5v43c0,3,2.4,5.4,5.4,5.4h59.1v-43H7.8
		C4.8,18.9,2.4,16.5,2.4,13.5z"/>
	<path fill="#FFFFFF" d="M2.4,13.5v43c0,3,2.4,5.4,5.4,5.4h59.1v-43H7.8C4.8,18.9,2.4,16.5,2.4,13.5z"/>
</g>
<g>
	<path fill="none" stroke="#05A8F3" stroke-width="1.9588" stroke-miterlimit="10" d="M50.6,35c-2.8,0-5.2,2.4-5.2,5.4
		c0,3,2.3,5.4,5.2,5.4h18V35H50.6z"/>
	<path fill="#FFFFFF" d="M50.6,35c-2.8,0-5.2,2.4-5.2,5.4c0,3,2.3,5.4,5.2,5.4h18V35H50.6z"/>
</g>
<circle fill="#FFFFFF" stroke="#05A8F3" stroke-miterlimit="10" cx="50.8" cy="40.4" r="2.7"/>
<g>
	<g>
		<path fill="none" stroke="#05A8F3" stroke-width="2" stroke-miterlimit="10" d="M7.8,8.1c-3,0-5.4,2.4-5.4,5.4
			c0,3,2.4,5.4,5.4,5.4h59.1v-2.7h-59H7.8h0.1c-1.5,0-2.7-1.2-2.7-2.7s1.2-2.7,2.7-2.7H7.8h0.1h59V8.1H7.8z"/>
		<path fill="#FFFFFF" d="M7.8,8.1c-3,0-5.4,2.4-5.4,5.4c0,3,2.4,5.4,5.4,5.4h59.1v-2.7h-59H7.8h0.1c-1.5,0-2.7-1.2-2.7-2.7
			s1.2-2.7,2.7-2.7H7.8h0.1h59V8.1H7.8z"/>
	</g>
</g>
<g>
	<g>
		<line fill="none" stroke="#05A8F3" stroke-miterlimit="10" x1="6.7" y1="23.8" x2="10.7" y2="23.8"/>
		
			<line fill="none" stroke="#05A8F3" stroke-miterlimit="10" stroke-dasharray="7.3195,7.3195" x1="18.1" y1="23.8" x2="58.3" y2="23.8"/>
		<line fill="none" stroke="#05A8F3" stroke-miterlimit="10" x1="62" y1="23.8" x2="66" y2="23.8"/>
	</g>
</g>
<g>
	<g>
		<line fill="none" stroke="#05A8F3" stroke-miterlimit="10" x1="6.7" y1="56" x2="10.7" y2="56"/>
		
			<line fill="none" stroke="#05A8F3" stroke-miterlimit="10" stroke-dasharray="7.3195,7.3195" x1="18.1" y1="56" x2="58.3" y2="56"/>
		<line fill="none" stroke="#05A8F3" stroke-miterlimit="10" x1="62" y1="56" x2="66" y2="56"/>
	</g>
</g>
</svg>
