<?xml version="1.0" encoding="utf-8"?>
<!-- Generator: Adobe Illustrator 18.0.0, SVG Export Plug-In . SVG Version: 6.00 Build 0)  -->
<!DOCTYPE svg PUBLIC "-//W3C//DTD SVG 1.1//EN" "http://www.w3.org/Graphics/SVG/1.1/DTD/svg11.dtd">
<svg version="1.1" id="Layer_1" xmlns="http://www.w3.org/2000/svg" xmlns:xlink="http://www.w3.org/1999/xlink" x="0px" y="0px"
	 viewBox="0 0 43 48" enable-background="new 0 0 43 48" xml:space="preserve">
<g>
	<path fill="#FFFFFF" d="M41.8,11.9c0,0-4.5-2.9-9.1-5.8c-9.6-5.9-10.6-5.9-11.1-5.9c-0.5,0-1.5,0-11.2,5.8
		c-4.7,2.8-9.2,5.6-9.2,5.6l-0.5,0.3v23.9L1,36.1c0,0,4.5,2.9,9.1,5.8c9.6,5.9,10.6,5.9,11.1,5.9c0.5,0,1.5,0,11.2-5.8
		c4.7-2.8,9.2-5.6,9.2-5.6l0.7-0.4V12.2L41.8,11.9z M41.2,24.2l-0.1,11.4c0,0-17.8,11.3-19.9,11.3c-2,0-19.7-11.6-19.7-11.6
		l0.1-11.4l0.1-11.4c0,0,17.8-11.3,19.9-11.3c2,0,19.7,11.6,19.7,11.6L41.2,24.2z"/>
	<g>
		<polygon fill="#FFFFFF" points="3.3,13.4 21.6,5.3 21.6,2.4 		"/>
		<polygon fill="#FFFFFF" points="21.6,2.4 21.6,5.3 39.7,13.6 		"/>
	</g>
	<g>
		<polygon fill="#FFFFFF" points="39.5,34.7 21.3,42.7 21.2,45.7 		"/>
		<polygon fill="#FFFFFF" points="21.2,45.7 21.3,42.7 3.1,34.4 		"/>
	</g>
	<polygon fill="#FFFFFF" points="13.2,36.3 13.2,36.3 13.2,36.3 	"/>
	<polygon fill="#FFFFFF" points="13.2,32 13.2,32 13.2,32 	"/>
	<g>
		<g>
			<g>
				<path fill="#FFFFFF" d="M30.2,12.2l0.4-1.9L8.5,13.9c-0.3,0-0.3,0.2-0.1,0.3l3.3,2.3c0.2,0.1,0.6,0.2,0.8,0.2l17.2-2.6l0.1-0.5
					l0,0L30.2,12.2z"/>
			</g>
			<path fill="#FFFFFF" d="M12.3,17.4l0,2.9c0,0.3,0.1,0.3,0.3,0.1l2.8-2.9c0.2-0.2,0.3-0.5,0.3-0.8L12.3,17.4z"/>
		</g>
		<g>
			<g>
				<path fill="#FFFFFF" d="M30.2,22.2l0.4-1.9L8.5,23.9c-0.3,0-0.3,0.2-0.1,0.3l3.3,2.3c0.2,0.1,0.6,0.2,0.8,0.2l17.2-2.6l0.1-0.5
					l0,0L30.2,22.2z"/>
			</g>
			<path fill="#FFFFFF" d="M12.3,27.4l0,2.9c0,0.3,0.1,0.3,0.3,0.1l2.8-2.9c0.2-0.2,0.3-0.5,0.3-0.8L12.3,27.4z"/>
		</g>
		<g>
			<g>
				<path fill="#FFFFFF" d="M30.2,32.1l0.4-1.9L8.6,33.8c-0.3,0-0.3,0.2-0.1,0.3l3.3,2.3c0.2,0.1,0.6,0.2,0.8,0.2l17.2-2.6l0.1-0.5
					l0,0L30.2,32.1z"/>
			</g>
		</g>
	</g>
</g>
</svg>
