<?xml version="1.0" encoding="utf-8"?>
<!-- Generator: Adobe Illustrator 18.0.0, SVG Export Plug-In . SVG Version: 6.00 Build 0)  -->
<!DOCTYPE svg PUBLIC "-//W3C//DTD SVG 1.1//EN" "http://www.w3.org/Graphics/SVG/1.1/DTD/svg11.dtd">
<svg version="1.1" id="Layer_1" xmlns="http://www.w3.org/2000/svg" xmlns:xlink="http://www.w3.org/1999/xlink" x="0px" y="0px"
	 viewBox="0 0 83 29.3" enable-background="new 0 0 83 29.3" xml:space="preserve">
<g>
	<path fill="#FFFFFF" d="M24.3,8.3c0,0-2.5-1.7-5.2-3.3c-5.4-3.4-6-3.4-6.3-3.4c-0.3,0-0.9,0-6.4,3.3C3.7,6.5,1.2,8.1,1.2,8.1
		L0.9,8.3v13.6L1.1,22c0,0,2.5,1.7,5.2,3.3c5.4,3.4,6,3.4,6.3,3.4c0.3,0,0.9,0,6.4-3.3c2.7-1.6,5.2-3.2,5.2-3.2l0.4-0.2V8.4
		L24.3,8.3z M23.9,15.2l-0.1,6.5c0,0-10.1,6.4-11.3,6.4c-1.2,0-11.2-6.6-11.2-6.6l0.1-6.5l0.1-6.5c0,0,10.1-6.4,11.3-6.4
		C13.9,2.2,24,8.7,24,8.7L23.9,15.2z"/>
	<g>
		<polygon fill="#FFFFFF" points="2.4,9.1 12.7,4.5 12.8,2.9 		"/>
		<polygon fill="#FFFFFF" points="12.8,2.9 12.7,4.5 23.1,9.3 		"/>
	</g>
	<g>
		<polygon fill="#FFFFFF" points="23,21.2 12.6,25.8 12.6,27.5 		"/>
		<polygon fill="#FFFFFF" points="12.6,27.5 12.6,25.8 2.3,21.1 		"/>
	</g>
	<polygon fill="#FFFFFF" points="8,22.1 8,22.1 8,22.1 	"/>
	<polygon fill="#FFFFFF" points="8,19.7 8,19.7 8,19.7 	"/>
	<g>
		<g>
			<g>
				<path fill="#FFFFFF" d="M17.7,8.4l0.2-1.1L5.3,9.4c-0.1,0-0.2,0.1,0,0.2l1.9,1.3C7.3,11,7.5,11,7.6,11l9.8-1.5l0.1-0.3l0,0
					L17.7,8.4z"/>
			</g>
			<path fill="#FFFFFF" d="M7.5,11.4l0,1.6c0,0.1,0.1,0.2,0.2,0.1l1.6-1.6c0.1-0.1,0.2-0.3,0.2-0.5L7.5,11.4z"/>
		</g>
		<g>
			<g>
				<path fill="#FFFFFF" d="M17.7,14.1l0.2-1.1L5.3,15.1c-0.1,0-0.2,0.1,0,0.2l1.9,1.3c0.1,0.1,0.3,0.1,0.5,0.1l9.8-1.5l0.1-0.3l0,0
					L17.7,14.1z"/>
			</g>
			<path fill="#FFFFFF" d="M7.5,17.1l0,1.6c0,0.1,0.1,0.2,0.2,0.1l1.6-1.6c0.1-0.1,0.2-0.3,0.2-0.5L7.5,17.1z"/>
		</g>
		<g>
			<g>
				<path fill="#FFFFFF" d="M17.7,19.8l0.2-1.1L5.4,20.7c-0.1,0-0.2,0.1,0,0.2l1.9,1.3c0.1,0.1,0.3,0.1,0.5,0.1l9.8-1.5l0.1-0.3l0,0
					L17.7,19.8z"/>
			</g>
		</g>
	</g>
	<g>
		<g>
			<g>
				<path fill="#FFFFFF" d="M28.7,19.1c0,0.7,0.3,1.3,1.5,1.3h5V22H30c-2-0.1-2.9-0.6-2.9-2.6V8.5h8.2V10h-6.5v4.3h6.1v1.5h-6.1
					V19.1z"/>
			</g>
		</g>
		<g>
			<path fill="#FFFFFF" d="M40,20.5v-12h-1.6v10.9c0,1.9,0.9,2.5,2.9,2.6h4.8v-1.5H40z"/>
		</g>
		<g>
			<path fill="#FFFFFF" d="M49.4,8.5v10.9c0,1.4,0.5,2.1,1.6,2.4V8.5H49.4z"/>
		</g>
		<path fill="#FFFFFF" d="M54.2,15.2c0-4.1,3-7.1,7.1-7.1c4.1,0,7.1,3,7.1,7.1c0,4.1-3,7.1-7.1,7.1C57.2,22.3,54.2,19.3,54.2,15.2z
			 M66.6,15.2c0-3.1-2.2-5.6-5.3-5.6c-3.2,0-5.3,2.5-5.3,5.6c0,3.1,2.2,5.6,5.3,5.6C64.5,20.8,66.6,18.3,66.6,15.2z"/>
		<g>
			<path fill="#FFFFFF" d="M76,10v9.5c0,0.1,0,0.3,0,0.4L76,10L76,10z"/>
			<path fill="#FFFFFF" d="M76,8.5h-4.4V10H76h0v9.9c0.1,1.2,0.6,1.8,1.6,2V10h4.5V8.5H76z"/>
		</g>
	</g>
</g>
</svg>
