<?xml version="1.0" encoding="utf-8"?>
<!-- Generator: Adobe Illustrator 18.1.1, SVG Export Plug-In . SVG Version: 6.00 Build 0)  -->
<!DOCTYPE svg PUBLIC "-//W3C//DTD SVG 1.1//EN" "http://www.w3.org/Graphics/SVG/1.1/DTD/svg11.dtd">
<svg version="1.1" id="Layer_1" xmlns="http://www.w3.org/2000/svg" xmlns:xlink="http://www.w3.org/1999/xlink" x="0px" y="0px"
	 viewBox="0 0 75 75" enable-background="new 0 0 75 75" xml:space="preserve">
<g>
	<path fill="#05A8F3" d="M21.3,13.2c0.4-1,0.9-1.9,1.7-2.6c0.7-0.7,1.6-1.3,2.6-1.7c1-0.4,2.1-0.6,3.4-0.6c1.6,0,2.9,0.2,4,0.7
		c1.1,0.4,1.9,1,2.6,1.6c0.7,0.7,1.1,1.4,1.4,2.1c0.3,0.8,0.4,1.5,0.4,2.1c0,1.1-0.1,2-0.4,2.7c-0.3,0.7-0.6,1.3-1,1.8
		c-0.4,0.5-0.9,0.9-1.4,1.3c-0.5,0.3-1,0.7-1.4,1c-0.5,0.3-0.8,0.7-1.2,1.2c-0.3,0.5-0.6,1-0.7,1.7v1.3h-4.6v-1.5
		c0.1-1,0.3-1.8,0.6-2.4c0.3-0.7,0.7-1.2,1.1-1.7c0.4-0.5,0.8-0.9,1.3-1.2c0.4-0.3,0.9-0.7,1.2-1c0.4-0.3,0.7-0.7,0.9-1.1
		c0.2-0.4,0.3-0.9,0.3-1.5c0-1-0.3-1.8-0.8-2.3c-0.5-0.5-1.2-0.7-2.1-0.7c-0.6,0-1.1,0.1-1.6,0.4c-0.4,0.2-0.8,0.6-1.1,0.9
		c-0.3,0.4-0.5,0.9-0.6,1.4c-0.1,0.5-0.2,1.1-0.2,1.7h-5C20.7,15.3,20.9,14.2,21.3,13.2z M31.4,27.7v5.2h-5.3v-5.2H31.4z"/>
</g>
<g>
	
		<rect x="46.7" y="36.1" transform="matrix(0.8157 -0.5784 0.5784 0.8157 -19.1116 36.9043)" fill="#05A8F3" width="3.3" height="24.7"/>
	
		<rect x="37.3" y="36.1" transform="matrix(0.8157 -0.5784 0.5784 0.8157 -14.6052 30.9223)" fill="#05A8F3" width="7.9" height="4.5"/>
	
		<rect x="57.5" y="55.3" transform="matrix(0.8157 -0.5784 0.5784 0.8157 -26.5123 46.7284)" fill="#05A8F3" width="5.1" height="19.4"/>
	<path fill="#05A8F3" d="M17,4.3C7.8,10.8,5.6,23.7,12.1,33s19.4,11.5,28.7,4.9s11.5-19.4,4.9-28.7S26.3-2.3,17,4.3z M38.4,34.4
		c-7.3,5.2-17.5,3.5-22.7-3.9S12.2,13,19.5,7.8S37,4.3,42.2,11.7S45.7,29.1,38.4,34.4z"/>
</g>
</svg>
