<svg version="1.1" id="Layer_1" xmlns="http://www.w3.org/2000/svg" xmlns:xlink="http://www.w3.org/1999/xlink" x="0px" y="0px"
	 viewBox="0 0 50 50" enable-background="new 0 0 50 50" xml:space="preserve">\
	 <g>
	<path fill="none" stroke="#05A8F3" stroke-width="2" stroke-linecap="round" stroke-linejoin="round" stroke-miterlimit="10" d="
		M44.7,18.4v-7.8h3.1c0.1,0,0.3,0.1,0.3,0.3v7.2c0,0.1-0.1,0.3-0.3,0.3L44.7,18.4L44.7,18.4z"/>
	<path fill="#FFFFFF" d="M44.7,18.4v-7.8h3.1c0.1,0,0.3,0.1,0.3,0.3v7.2c0,0.1-0.1,0.3-0.3,0.3L44.7,18.4L44.7,18.4z"/>
</g>
<g>
	<path fill="none" stroke="#05A8F3" stroke-width="2" stroke-linecap="round" stroke-linejoin="round" stroke-miterlimit="10" d="
		M45.3,20V9.5C45.3,9.2,45,9,44.8,9l-1.6-0.2v11.9l1.6-0.2C45.1,20.5,45.3,20.3,45.3,20z"/>
	<path fill="#FFFFFF" d="M45.3,20V9.5C45.3,9.2,45,9,44.8,9l-1.6-0.2v11.9l1.6-0.2C45.1,20.5,45.3,20.3,45.3,20z"/>
</g>
<g>

		<rect x="23" y="26.3" fill="none" stroke="#05A8F3" stroke-width="2" stroke-linecap="round" stroke-linejoin="round" stroke-miterlimit="10" width="2.6" height="6.1"/>
	<rect x="23" y="26.3" fill="#FFFFFF" width="2.6" height="6.1"/>
</g>
<g>
	<path fill="none" stroke="#05A8F3" stroke-width="2" stroke-linecap="round" stroke-linejoin="round" stroke-miterlimit="10" d="
		M40.1,1.3H8.5c-1.7,0-3.1,1.5-3.1,3.4v20.1c0,1.9,1.4,3.4,3.1,3.4H40c1.7,0,3.1-1.5,3.1-3.4V4.7C43.1,2.9,41.8,1.3,40.1,1.3z
		 M40.2,16.2v9.1H8.4v-9.1c-0.7,0-1.2-0.6-1.2-1.4s0.5-1.4,1.2-1.4v-9h31.8v9.1c0.7,0,1.3,0.6,1.3,1.4
		C41.4,15.5,40.8,16.2,40.2,16.2z"/>
	<path fill="#FFFFFF" d="M40.1,1.3H8.5c-1.7,0-3.1,1.5-3.1,3.4v20.1c0,1.9,1.4,3.4,3.1,3.4H40c1.7,0,3.1-1.5,3.1-3.4V4.7
		C43.1,2.9,41.8,1.3,40.1,1.3z M40.2,16.2v9.1H8.4v-9.1c-0.7,0-1.2-0.6-1.2-1.4s0.5-1.4,1.2-1.4v-9h31.8v9.1c0.7,0,1.3,0.6,1.3,1.4
		C41.4,15.5,40.8,16.2,40.2,16.2z"/>
</g>
<g>
	<path fill="none" stroke="#05A8F3" stroke-width="2" stroke-linecap="round" stroke-linejoin="round" stroke-miterlimit="10" d="
		M29.1,33.4h-9.6v-1.9c0,0,0-0.1,0.1-0.1H29c0,0,0.1,0,0.1,0.1L29.1,33.4L29.1,33.4z"/>
	<path fill="#FFFFFF" d="M29.1,33.4h-9.6v-1.9c0,0,0-0.1,0.1-0.1H29c0,0,0.1,0,0.1,0.1L29.1,33.4L29.1,33.4z"/>
</g>
<g>
	<path fill="none" stroke="#05A8F3" stroke-width="2" stroke-linecap="round" stroke-linejoin="round" stroke-miterlimit="10" d="
		M9.2,48.6H6.6c-0.6,0-1.1-0.5-1.1-1.1v-1.6c0-0.6,0.5-1.1,1.1-1.1h2.6c0.6,0,1.1,0.5,1.1,1.1v1.6C10.3,48.1,9.8,48.6,9.2,48.6z"/>
	<path fill="#FFFFFF" d="M9.2,48.6H6.6c-0.6,0-1.1-0.5-1.1-1.1v-1.6c0-0.6,0.5-1.1,1.1-1.1h2.6c0.6,0,1.1,0.5,1.1,1.1v1.6
		C10.3,48.1,9.8,48.6,9.2,48.6z"/>
</g>
<g>
	<path fill="none" stroke="#05A8F3" stroke-width="2" stroke-linecap="round" stroke-linejoin="round" stroke-miterlimit="10" d="
		M42.1,48.6h-2.6c-0.6,0-1.1-0.5-1.1-1.1v-1.6c0-0.6,0.5-1.1,1.1-1.1h2.6c0.6,0,1.1,0.5,1.1,1.1v1.6C43.2,48.1,42.7,48.6,42.1,48.6z
		"/>
	<path fill="#FFFFFF" d="M42.1,48.6h-2.6c-0.6,0-1.1-0.5-1.1-1.1v-1.6c0-0.6,0.5-1.1,1.1-1.1h2.6c0.6,0,1.1,0.5,1.1,1.1v1.6
		C43.2,48.1,42.7,48.6,42.1,48.6z"/>
</g>
<g>
	<path fill="none" stroke="#05A8F3" stroke-width="2" stroke-linecap="round" stroke-linejoin="round" stroke-miterlimit="10" d="
		M37.7,37H10.9c0,0,0,0,0,0v-3.6c0,0,0,0,0,0h26.7c0,0,0,0,0,0L37.7,37C37.7,37,37.7,37,37.7,37z"/>
	<path fill="#FFFFFF" d="M37.7,37H10.9c0,0,0,0,0,0v-3.6c0,0,0,0,0,0h26.7c0,0,0,0,0,0L37.7,37C37.7,37,37.7,37,37.7,37z"/>
</g>
<g>

		<rect x="2.1" y="36.2" fill="none" stroke="#05A8F3" stroke-width="2" stroke-linecap="round" stroke-linejoin="round" stroke-miterlimit="10" width="44.5" height="9.8"/>
	<rect x="2.1" y="36.2" fill="#FFFFFF" width="44.5" height="9.8"/>
</g>
</svg>
