<?xml version="1.0" encoding="utf-8"?>
<!-- Generator: Adobe Illustrator 18.1.1, SVG Export Plug-In . SVG Version: 6.00 Build 0)  -->
<!DOCTYPE svg PUBLIC "-//W3C//DTD SVG 1.1//EN" "http://www.w3.org/Graphics/SVG/1.1/DTD/svg11.dtd">
<svg version="1.1" id="Layer_1" xmlns="http://www.w3.org/2000/svg" xmlns:xlink="http://www.w3.org/1999/xlink" x="0px" y="0px"
	 viewBox="0 0 75 75" enable-background="new 0 0 75 75" xml:space="preserve">
<g>
	<g>
		<g>
			<g>
				<rect x="4" y="17" fill="#FFFFFF" stroke="#05A8F3" stroke-width="2" stroke-miterlimit="10" width="68" height="44"/>
			</g>
		</g>
		<g>
			<g>
				<rect x="38" y="19" fill="#FFFFFF" width="32" height="40"/>
			</g>
		</g>
		<g>
			<g>
				<rect x="6" y="19" fill="#FFFFFF" width="32" height="40"/>
			</g>
		</g>
		<g>
			<g>
				<rect x="34" y="51" fill="#FFFFFF" width="8" height="8"/>
			</g>
		</g>
		<g>
			<g>
				<path fill="#05A8F3" d="M30,59c0-2.2,1.8-4,4-4s4,1.8,4,4"/>
			</g>
		</g>
		<g>
			<g>
				<path fill="#05A8F3" d="M38,59c0-2.2,1.8-4,4-4s4,1.8,4,4"/>
			</g>
		</g>
		<g>
			<g>
				<path fill="#FFFFFF" d="M42,15c-2.2,0-4,1.8-4,4c0-2.2-1.8-4-4-4H10v40h56V15H42z"/>
			</g>
		</g>
		<g>
			<g>
				<polygon fill="#05A8F3" points="6,19 6,59 10,55 10,15 				"/>
			</g>
		</g>
		<g>
			<g>
				<polygon fill="#05A8F3" points="70,19 70,59 66,55 66,15 				"/>
			</g>
		</g>
		<g>
			<g>
				<g>
					<rect x="14" y="34.5" fill="#05A8F3" width="20" height="1"/>
				</g>
			</g>
			<g>
				<g>
					<rect x="14" y="38.5" fill="#05A8F3" width="20" height="1"/>
				</g>
			</g>
			<g>
				<g>
					<rect x="14" y="42.5" fill="#05A8F3" width="20" height="1"/>
				</g>
			</g>
			<g>
				<g>
					<rect x="14" y="46.5" fill="#05A8F3" width="20" height="1"/>
				</g>
			</g>
			<g>
				<g>
					<rect x="14" y="50.5" fill="#05A8F3" width="20" height="1"/>
				</g>
			</g>
			<g>
				<g>
					<rect x="42" y="18.5" fill="#05A8F3" width="20" height="1"/>
				</g>
			</g>
			<g>
				<g>
					<rect x="42" y="22.5" fill="#05A8F3" width="20" height="1"/>
				</g>
			</g>
			<g>
				<g>
					<rect x="42" y="26.5" fill="#05A8F3" width="20" height="1"/>
				</g>
			</g>
			<g>
				<g>
					<rect x="42" y="30.5" fill="#05A8F3" width="20" height="1"/>
				</g>
			</g>
			<g>
				<g>
					<rect x="14" y="18.5" fill="#05A8F3" width="20" height="1"/>
				</g>
			</g>
			<g>
				<g>
					<rect x="14" y="22.5" fill="#05A8F3" width="20" height="1"/>
				</g>
			</g>
			<g>
				<g>
					<rect x="14" y="26.5" fill="#05A8F3" width="20" height="1"/>
				</g>
			</g>
			<g>
				<g>
					<rect x="14" y="30.5" fill="#05A8F3" width="20" height="1"/>
				</g>
			</g>
			<g>
				<g>
					<rect x="42" y="34.5" fill="#05A8F3" width="20" height="1"/>
				</g>
			</g>
			<g>
				<g>
					<rect x="42" y="38.5" fill="#05A8F3" width="20" height="1"/>
				</g>
			</g>
			<g>
				<g>
					<rect x="42" y="42.5" fill="#05A8F3" width="20" height="1"/>
				</g>
			</g>
			<g>
				<g>
					<rect x="42" y="46.5" fill="#05A8F3" width="20" height="1"/>
				</g>
			</g>
			<g>
				<g>
					<rect x="42" y="50.5" fill="#05A8F3" width="20" height="1"/>
				</g>
			</g>
		</g>
	</g>
</g>
</svg>
