<?xml version="1.0" encoding="utf-8"?>
<!-- Generator: Adobe Illustrator 18.1.1, SVG Export Plug-In . SVG Version: 6.00 Build 0)  -->
<!DOCTYPE svg PUBLIC "-//W3C//DTD SVG 1.1//EN" "http://www.w3.org/Graphics/SVG/1.1/DTD/svg11.dtd">
<svg version="1.1" id="Layer_1" xmlns="http://www.w3.org/2000/svg" xmlns:xlink="http://www.w3.org/1999/xlink" x="0px" y="0px"
	 viewBox="0 0 50 50" enable-background="new 0 0 50 50" xml:space="preserve">
<g>
	<path fill="#FFFFFF" stroke="#05A8F3" stroke-width="2" stroke-miterlimit="10" d="M25,16.7c-11.3,0-20.4,9.1-20.5,20.4l40.9,0.1
		C45.4,25.9,36.3,16.7,25,16.7z"/>
</g>
<g>
	<path fill="#FFFFFF" stroke="#05A8F3" stroke-width="2" stroke-miterlimit="10" d="M25.8,18.9l0,15.1c0,1.7-4.2,3.1-6,3.1l-8.1,0
		l0-13.4c0-4.4,3.6-8,8-8l0.1,0C21.5,15.8,25.8,17.2,25.8,18.9z"/>
	<path fill="#FFFFFF" stroke="#05A8F3" stroke-width="2" stroke-miterlimit="10" d="M24.2,21.7l0,9.4c0,3.3,2.7,6,6,6l8.1,0l0-13.4
		c0-4.4-3.6-8-8-8l-0.1,0C26.9,15.8,24.3,18.5,24.2,21.7z"/>
</g>
<g>
	<path fill="#FFFFFF" stroke="#05A8F3" stroke-width="2" stroke-miterlimit="10" d="M31.8,18c0-3.8-3-6.8-6.8-6.8
		c-3.8,0-6.8,3-6.8,6.8l0,19.2l13.7,0L31.8,18z"/>
</g>
<line fill="#FFFFFF" stroke="#05A8F3" stroke-miterlimit="10" x1="21.8" y1="11.5" x2="21.8" y2="38.7"/>
<line fill="#FFFFFF" stroke="#05A8F3" stroke-miterlimit="10" x1="25.1" y1="11.5" x2="25.1" y2="38.7"/>
<line fill="#FFFFFF" stroke="#05A8F3" stroke-miterlimit="10" x1="28.2" y1="11.5" x2="28.2" y2="38.7"/>
<rect x="1.9" y="34.1" transform="matrix(1 1.615434e-03 -1.615434e-03 1 5.896461e-02 -4.033824e-02)" fill="#FFFFFF" stroke="#05A8F3" stroke-width="2" stroke-miterlimit="10" width="46.2" height="4.7"/>
<circle fill="#FFFFFF" stroke="#05A8F3" stroke-miterlimit="10" cx="25" cy="23.4" r="5.2"/>
<circle fill="#05A8F3" cx="25" cy="23.4" r="3.5"/>
</svg>
