<?xml version="1.0" encoding="utf-8"?>
<!-- Generator: Adobe Illustrator 18.1.1, SVG Export Plug-In . SVG Version: 6.00 Build 0)  -->
<!DOCTYPE svg PUBLIC "-//W3C//DTD SVG 1.1//EN" "http://www.w3.org/Graphics/SVG/1.1/DTD/svg11.dtd">
<svg version="1.1" id="Layer_1" xmlns="http://www.w3.org/2000/svg" xmlns:xlink="http://www.w3.org/1999/xlink" x="0px" y="0px"
	 viewBox="0 0 50 50" enable-background="new 0 0 50 50" xml:space="preserve">
<rect x="2.4" y="7.5" fill="#FFFFFF" stroke="#05A8F3" stroke-width="2.1539" stroke-linecap="round" stroke-linejoin="round" stroke-miterlimit="10" width="39.9" height="39.9"/>
<polygon fill="#FFFFFF" stroke="#05A8F3" stroke-width="2.1539" stroke-linecap="round" stroke-linejoin="round" stroke-miterlimit="10" points="
	47.5,42.8 42.2,47.4 42.2,7.5 47.5,2.8 "/>
<polygon fill="#FFFFFF" stroke="#05A8F3" stroke-width="2.1539" stroke-linecap="round" stroke-linejoin="round" stroke-miterlimit="10" points="
	47.5,2.8 42.1,7.5 2.4,7.5 7.8,2.8 "/>
<polygon fill="#FFFFFF" stroke="#05A8F3" stroke-width="1.077" stroke-linecap="round" stroke-linejoin="round" stroke-miterlimit="10" points="
	24.8,15.3 24.8,7.5 19.8,7.5 19.8,15.3 21.1,14.1 22.3,15.4 23.5,14.1 "/>
<line fill="#FFFFFF" stroke="#05A8F3" stroke-width="1.077" stroke-linecap="round" stroke-linejoin="round" stroke-miterlimit="10" x1="12.6" y1="28.8" x2="12.6" y2="38.9"/>
<line fill="#FFFFFF" stroke="#05A8F3" stroke-width="1.077" stroke-linecap="round" stroke-linejoin="round" stroke-miterlimit="10" x1="15.1" y1="31.2" x2="15.1" y2="36.5"/>
<line fill="#FFFFFF" stroke="#05A8F3" stroke-width="1.077" stroke-linecap="round" stroke-linejoin="round" stroke-miterlimit="10" x1="18.2" y1="28.8" x2="18.2" y2="38.9"/>
<line fill="#FFFFFF" stroke="#05A8F3" stroke-width="1.077" stroke-linecap="round" stroke-linejoin="round" stroke-miterlimit="10" x1="20.7" y1="31.2" x2="20.7" y2="36.5"/>
<line fill="#FFFFFF" stroke="#05A8F3" stroke-width="1.077" stroke-linecap="round" stroke-linejoin="round" stroke-miterlimit="10" x1="23.9" y1="28.8" x2="23.9" y2="38.9"/>
<line fill="#FFFFFF" stroke="#05A8F3" stroke-width="1.077" stroke-linecap="round" stroke-linejoin="round" stroke-miterlimit="10" x1="26.4" y1="31.2" x2="26.4" y2="36.5"/>
<line fill="#FFFFFF" stroke="#05A8F3" stroke-width="1.077" stroke-linecap="round" stroke-linejoin="round" stroke-miterlimit="10" x1="29.5" y1="28.8" x2="29.5" y2="38.9"/>
<line fill="#FFFFFF" stroke="#05A8F3" stroke-width="1.077" stroke-linecap="round" stroke-linejoin="round" stroke-miterlimit="10" x1="32" y1="31.2" x2="32" y2="36.5"/>
<polygon fill="#FFFFFF" stroke="#05A8F3" stroke-width="1.077" stroke-linecap="round" stroke-linejoin="round" stroke-miterlimit="10" points="
	25.1,7.5 19.8,7.5 24.5,3 29.8,3.1 "/>
</svg>
