<?xml version="1.0" encoding="utf-8"?>
<!-- Generator: Adobe Illustrator 18.1.1, SVG Export Plug-In . SVG Version: 6.00 Build 0)  -->
<!DOCTYPE svg PUBLIC "-//W3C//DTD SVG 1.1//EN" "http://www.w3.org/Graphics/SVG/1.1/DTD/svg11.dtd">
<svg version="1.1" id="Layer_1" xmlns="http://www.w3.org/2000/svg" xmlns:xlink="http://www.w3.org/1999/xlink" x="0px" y="0px"
	 viewBox="0 0 50 50" enable-background="new 0 0 50 50" xml:space="preserve">
<g>
	<g>
		<path fill="none" stroke="#05A8F3" stroke-width="2.269" stroke-miterlimit="10" d="M34,1.3c-1.6,0-6.5,4.3-9,6.5
			c-2.5-2.2-7.4-6.5-9-6.5c-2.2,0-3.9,1.8-3.9,3.9s1.8,3.9,3.9,3.9c1.3,0,4.9,0,7.5,0c1.7,0,2.9,0,2.9,0c2.6,0,6.2,0,7.5,0
			c2.2,0,3.9-1.8,3.9-3.9S36.1,1.3,34,1.3z"/>
		<path fill="#FFFFFF" d="M34,1.3c-1.6,0-6.5,4.3-9,6.5c-2.5-2.2-7.4-6.5-9-6.5c-2.2,0-3.9,1.8-3.9,3.9s1.8,3.9,3.9,3.9
			c1.3,0,4.9,0,7.5,0c1.7,0,2.9,0,2.9,0c2.6,0,6.2,0,7.5,0c2.2,0,3.9-1.8,3.9-3.9S36.1,1.3,34,1.3z"/>
	</g>
	<g>
		<path fill="#05A8F3" d="M33.8,8c-1.5,0-7.1,0-7.1,0s5.6-5.4,7.1-5.4s2.7,1.2,2.7,2.7S35.3,8,33.8,8z"/>
	</g>
	<g>
		<path fill="#05A8F3" d="M15.9,8C17.4,8,23,8,23,8s-5.6-5.4-7.1-5.4s-2.7,1.2-2.7,2.7S14.4,8,15.9,8z"/>
	</g>
</g>
<g>
	<rect x="4" y="14.4" fill="none" stroke="#05A8F3" stroke-width="2.269" stroke-miterlimit="10" width="41.9" height="33.6"/>
	<rect x="4" y="14.4" fill="#FFFFFF" width="41.9" height="33.6"/>
</g>
<g>
	<rect x="21.9" y="14" fill="none" stroke="#05A8F3" stroke-width="2.269" stroke-miterlimit="10" width="6.2" height="34"/>
	<rect x="21.9" y="14" fill="#FFFFFF" width="6.2" height="34"/>
</g>
<g>
	<rect x="2.2" y="10.5" fill="none" stroke="#05A8F3" stroke-width="2.269" stroke-miterlimit="10" width="45.6" height="6.2"/>
	<rect x="2.2" y="10.5" fill="#FFFFFF" width="45.6" height="6.2"/>
</g>
<g>
	<rect x="21.9" y="10.5" fill="none" stroke="#05A8F3" stroke-width="2.1776" stroke-miterlimit="10" width="6.2" height="6.7"/>
	<rect x="21.9" y="10.5" fill="#FFFFFF" width="6.2" height="6.7"/>
</g>
</svg>
