<?xml version="1.0" encoding="utf-8"?>
<!-- Generator: Adobe Illustrator 18.1.1, SVG Export Plug-In . SVG Version: 6.00 Build 0)  -->
<!DOCTYPE svg PUBLIC "-//W3C//DTD SVG 1.1//EN" "http://www.w3.org/Graphics/SVG/1.1/DTD/svg11.dtd">
<svg version="1.1" id="Layer_1" xmlns="http://www.w3.org/2000/svg" xmlns:xlink="http://www.w3.org/1999/xlink" x="0px" y="0px"
	 viewBox="0 0 50 50" enable-background="new 0 0 50 50" xml:space="preserve">
<path fill="#FFFFFF" stroke="#05A8F3" stroke-miterlimit="10" d="M1.4,12.7c0-1.1,0.9-1.9,1.9-1.9h42.8c1.1,0,1.9,0.9,1.9,1.9v24.6
	c0,1.1-0.9,1.9-1.9,1.9H3.4c-1.1,0-1.9-0.9-1.9-1.9V12.7z"/>
<path fill="#FFFFFF" stroke="#05A8F3" stroke-miterlimit="10" d="M3.4,10.3h42.8c1.3,0,2.4,1.1,2.4,2.4v24.6c0,1.3-1.1,2.4-2.4,2.4
	H3.4C2,39.7,1,38.7,1,37.3V12.7C1,11.3,2,10.3,3.4,10.3z M46.2,38.8c0.8,0,1.5-0.7,1.5-1.5V12.7c0-0.8-0.7-1.5-1.5-1.5H3.4
	c-0.8,0-1.5,0.7-1.5,1.5v24.6c0,0.8,0.7,1.5,1.5,1.5H46.2z"/>
<path fill="#05A8F3" d="M1,15.2h47.6v4.1H1V15.2z"/>
<g>
	<rect x="40.2" y="27.7" fill="#05A8F3" width="2.5" height="4.9"/>
</g>
<rect x="36.4" y="30.2" fill="#05A8F3" width="2.6" height="5.2"/>
<rect x="28.7" y="30.2" fill="#05A8F3" width="2.6" height="5.2"/>
<g>
	<rect x="23.5" y="30.2" fill="#05A8F3" width="2.6" height="5.2"/>
</g>
<g>
	<rect x="18.3" y="30.2" fill="#05A8F3" width="2.6" height="5.2"/>
</g>
<g>
	<path fill="#05A8F3" d="M10.1,28.9h3.4v5.9h-3.4V28.9z"/>
</g>
<g>
	<rect x="9.3" y="25.7" fill="#05A8F3" width="15.6" height="1"/>
</g>
<g>
	<rect x="9.3" y="23.1" fill="#05A8F3" width="15.6" height="1"/>
</g>
</svg>
