<?xml version="1.0" encoding="utf-8"?>
<!-- Generator: Adobe Illustrator 18.1.1, SVG Export Plug-In . SVG Version: 6.00 Build 0)  -->
<!DOCTYPE svg PUBLIC "-//W3C//DTD SVG 1.1//EN" "http://www.w3.org/Graphics/SVG/1.1/DTD/svg11.dtd">
<svg version="1.1" id="Layer_1" xmlns="http://www.w3.org/2000/svg" xmlns:xlink="http://www.w3.org/1999/xlink" x="0px" y="0px"
	 viewBox="0 0 50 50" enable-background="new 0 0 50 50" xml:space="preserve">
<g>
	<rect x="19.9" y="34.3" fill="none" stroke="#05A8F3" stroke-width="1.5" stroke-miterlimit="10" width="4.1" height="10"/>
	<rect x="19.9" y="34.3" fill="#FFFFFF" width="4.1" height="10"/>
</g>
<g>
	<rect x="14" y="37.2" fill="none" stroke="#05A8F3" stroke-width="1.5" stroke-miterlimit="10" width="4.1" height="7"/>
	<rect x="14" y="37.2" fill="#FFFFFF" width="4.1" height="7"/>
</g>
<g>
	<rect x="8" y="40.2" fill="none" stroke="#05A8F3" stroke-width="1.5" stroke-miterlimit="10" width="4.1" height="4.1"/>
	<rect x="8" y="40.2" fill="#FFFFFF" width="4.1" height="4.1"/>
</g>
<g>
	<rect x="25.8" y="29.8" fill="none" stroke="#05A8F3" stroke-width="1.5" stroke-miterlimit="10" width="4.1" height="14.4"/>
	<rect x="25.8" y="29.8" fill="#FFFFFF" width="4.1" height="14.4"/>
</g>
<g>
	<rect x="31.7" y="25.4" fill="none" stroke="#05A8F3" stroke-width="1.5" stroke-miterlimit="10" width="4.1" height="18.8"/>
	<rect x="31.7" y="25.4" fill="#FFFFFF" width="4.1" height="18.8"/>
</g>
<g>
	<rect x="37.6" y="22.4" fill="none" stroke="#05A8F3" stroke-width="1.5" stroke-miterlimit="10" width="4.1" height="21.8"/>
	<rect x="37.6" y="22.4" fill="#FFFFFF" width="4.1" height="21.8"/>
</g>
<g>
	<rect x="43.5" y="12.6" fill="none" stroke="#05A8F3" stroke-width="1.5" stroke-miterlimit="10" width="4.1" height="31.6"/>
	<rect x="43.5" y="12.6" fill="#FFFFFF" width="4.1" height="31.6"/>
</g>
<polygon fill="#05A8F3" points="9.4,20.6 8.6,20 15.4,12.2 28.4,16.9 34.8,8.2 45.3,5.7 45.5,6.6 35.4,9.1 28.8,18 15.7,13.3 "/>
<g>
	<circle fill="none" stroke="#05A8F3" stroke-miterlimit="10" cx="9" cy="20.3" r="1.5"/>
	<circle fill="#FFFFFF" cx="9" cy="20.3" r="1.5"/>
</g>
<g>
	<circle fill="none" stroke="#05A8F3" stroke-width="1.5" stroke-miterlimit="10" cx="15.5" cy="12.8" r="1.5"/>
	<circle fill="#FFFFFF" cx="15.5" cy="12.8" r="1.5"/>
</g>
<g>
	<circle fill="none" stroke="#05A8F3" stroke-width="1.5" stroke-miterlimit="10" cx="28.6" cy="17.5" r="1.5"/>
	<circle fill="#FFFFFF" cx="28.6" cy="17.5" r="1.5"/>
</g>
<g>
	<circle fill="none" stroke="#05A8F3" stroke-width="1.5" stroke-miterlimit="10" cx="35.1" cy="8.7" r="1.5"/>
	<circle fill="#FFFFFF" cx="35.1" cy="8.7" r="1.5"/>
</g>
<g>
	<circle fill="none" stroke="#05A8F3" stroke-width="1.5" stroke-miterlimit="10" cx="45.4" cy="6.2" r="1.5"/>
	<circle fill="#FFFFFF" cx="45.4" cy="6.2" r="1.5"/>
</g>
<g>
	<rect x="1.9" y="40.6" fill="none" stroke="#05A8F3" stroke-width="1.5" stroke-miterlimit="10" width="3.6" height="3.6"/>
	<rect x="1.9" y="40.6" fill="#FFFFFF" width="3.6" height="3.6"/>
</g>
<g>
	<rect x="1.9" y="35.5" fill="none" stroke="#05A8F3" stroke-width="1.5" stroke-miterlimit="10" width="3.6" height="3.6"/>
	<rect x="1.9" y="35.5" fill="#FFFFFF" width="3.6" height="3.6"/>
</g>
<g>
	<rect x="1.9" y="30.3" fill="none" stroke="#05A8F3" stroke-width="1.5" stroke-miterlimit="10" width="3.6" height="3.6"/>
	<rect x="1.9" y="30.3" fill="#FFFFFF" width="3.6" height="3.6"/>
</g>
</svg>
