<?xml version="1.0" encoding="utf-8"?>
<!-- Generator: Adobe Illustrator 18.1.1, SVG Export Plug-In . SVG Version: 6.00 Build 0)  -->
<!DOCTYPE svg PUBLIC "-//W3C//DTD SVG 1.1//EN" "http://www.w3.org/Graphics/SVG/1.1/DTD/svg11.dtd">
<svg version="1.1" id="Layer_1" xmlns="http://www.w3.org/2000/svg" xmlns:xlink="http://www.w3.org/1999/xlink" x="0px" y="0px"
	 viewBox="0 0 50 50" enable-background="new 0 0 50 50" xml:space="preserve">
<g>
	<path fill="none" stroke="#05A8F3" stroke-width="1.8232" stroke-miterlimit="10" d="M37,28.5h-3.1v-1.9c-1.5-0.2-2.9-0.8-4.1-1.7
		l-1.4,1.4l-2.2-2.2l1.4-1.4c-0.9-1.2-1.5-2.6-1.7-4.1H24v-3.1h1.9c0.2-1.5,0.8-2.9,1.7-4.1l-1.4-1.4l2.2-2.2l1.4,1.4
		c1.2-0.9,2.6-1.5,4.1-1.7V5.6H37v1.9c1.5,0.2,2.9,0.8,4.1,1.7l1.4-1.4l2.2,2.2l-1.4,1.4c0.9,1.2,1.5,2.6,1.7,4.1h1.9v3.1h-1.9
		c-0.2,1.5-0.8,2.9-1.7,4.1l1.4,1.4l-2.2,2.2l-1.4-1.4c-1.2,0.9-2.6,1.5-4.1,1.7V28.5z M35.1,27.3h0.6v-1.8l0.6-0.1
		c1.6-0.2,3.2-0.8,4.4-1.8l0.4-0.4l1.3,1.3l0.4-0.4l-1.3-1.3l0.4-0.4c1-1.3,1.7-2.8,1.8-4.4l0.1-0.6h1.8v-0.6h-1.8l-0.1-0.6
		c-0.2-1.6-0.8-3.2-1.8-4.4l-0.4-0.4l1.3-1.3l-0.4-0.4l-1.3,1.3l-0.4-0.4c-1.3-1-2.8-1.7-4.4-1.8l-0.6-0.1V6.9h-0.6v1.8l-0.6,0.1
		c-1.6,0.2-3.2,0.8-4.4,1.8l-0.4,0.4l-1.3-1.3L28,10.1l1.3,1.3l-0.4,0.4c-1,1.3-1.7,2.8-1.8,4.4L27,16.8h-1.8v0.6H27l0.1,0.6
		c0.2,1.6,0.8,3.2,1.8,4.4l0.4,0.4L28,24.1l0.4,0.4l1.3-1.3l0.4,0.4c1.3,1,2.8,1.7,4.4,1.8l0.6,0.1V27.3z M35.4,23.8
		c-3.7,0-6.8-3-6.8-6.8c0-3.7,3-6.8,6.8-6.8c3.7,0,6.8,3,6.8,6.8C42.2,20.8,39.1,23.8,35.4,23.8z M35.4,11.6c-3,0-5.5,2.5-5.5,5.5
		c0,3,2.5,5.5,5.5,5.5c3,0,5.5-2.5,5.5-5.5C40.9,14,38.5,11.6,35.4,11.6z"/>
	<path fill="#FFFFFF" d="M37,28.5h-3.1v-1.9c-1.5-0.2-2.9-0.8-4.1-1.7l-1.4,1.4l-2.2-2.2l1.4-1.4c-0.9-1.2-1.5-2.6-1.7-4.1H24v-3.1
		h1.9c0.2-1.5,0.8-2.9,1.7-4.1l-1.4-1.4l2.2-2.2l1.4,1.4c1.2-0.9,2.6-1.5,4.1-1.7V5.6H37v1.9c1.5,0.2,2.9,0.8,4.1,1.7l1.4-1.4
		l2.2,2.2l-1.4,1.4c0.9,1.2,1.5,2.6,1.7,4.1h1.9v3.1h-1.9c-0.2,1.5-0.8,2.9-1.7,4.1l1.4,1.4l-2.2,2.2l-1.4-1.4
		c-1.2,0.9-2.6,1.5-4.1,1.7V28.5z M35.1,27.3h0.6v-1.8l0.6-0.1c1.6-0.2,3.2-0.8,4.4-1.8l0.4-0.4l1.3,1.3l0.4-0.4l-1.3-1.3l0.4-0.4
		c1-1.3,1.7-2.8,1.8-4.4l0.1-0.6h1.8v-0.6h-1.8l-0.1-0.6c-0.2-1.6-0.8-3.2-1.8-4.4l-0.4-0.4l1.3-1.3l-0.4-0.4l-1.3,1.3l-0.4-0.4
		c-1.3-1-2.8-1.7-4.4-1.8l-0.6-0.1V6.9h-0.6v1.8l-0.6,0.1c-1.6,0.2-3.2,0.8-4.4,1.8l-0.4,0.4l-1.3-1.3L28,10.1l1.3,1.3l-0.4,0.4
		c-1,1.3-1.7,2.8-1.8,4.4L27,16.8h-1.8v0.6H27l0.1,0.6c0.2,1.6,0.8,3.2,1.8,4.4l0.4,0.4L28,24.1l0.4,0.4l1.3-1.3l0.4,0.4
		c1.3,1,2.8,1.7,4.4,1.8l0.6,0.1V27.3z M35.4,23.8c-3.7,0-6.8-3-6.8-6.8c0-3.7,3-6.8,6.8-6.8c3.7,0,6.8,3,6.8,6.8
		C42.2,20.8,39.1,23.8,35.4,23.8z M35.4,11.6c-3,0-5.5,2.5-5.5,5.5c0,3,2.5,5.5,5.5,5.5c3,0,5.5-2.5,5.5-5.5
		C40.9,14,38.5,11.6,35.4,11.6z"/>
</g>
<g>
	<path fill="none" stroke="#05A8F3" stroke-width="1.8232" stroke-miterlimit="10" d="M44.4,16.1c-0.2-1.8-0.9-3.4-2-4.8l1.3-1.3
		l-1.3-1.3l-1.3,1.3c-1.3-1.1-3-1.8-4.8-2V6.2h-1.8v1.9c-1.8,0.2-3.4,0.9-4.8,2l-1.3-1.3l-1.3,1.3l1.3,1.3c-1.1,1.3-1.8,3-2,4.8
		h-1.9V18h1.9c0.2,1.8,0.9,3.4,2,4.8l-1.3,1.3l1.3,1.3l1.3-1.3c1.3,1.1,3,1.8,4.8,2v1.9h1.8V26c1.8-0.2,3.4-0.9,4.8-2l1.3,1.3
		l1.3-1.3l-1.3-1.3c1.1-1.3,1.8-3,2-4.8h1.9v-1.8H44.4z M35.4,23.2c-3.4,0-6.1-2.7-6.1-6.1c0-3.4,2.7-6.1,6.1-6.1
		c3.4,0,6.1,2.7,6.1,6.1C41.6,20.5,38.8,23.2,35.4,23.2z"/>
	<path fill="#FFFFFF" d="M44.4,16.1c-0.2-1.8-0.9-3.4-2-4.8l1.3-1.3l-1.3-1.3l-1.3,1.3c-1.3-1.1-3-1.8-4.8-2V6.2h-1.8v1.9
		c-1.8,0.2-3.4,0.9-4.8,2l-1.3-1.3l-1.3,1.3l1.3,1.3c-1.1,1.3-1.8,3-2,4.8h-1.9V18h1.9c0.2,1.8,0.9,3.4,2,4.8l-1.3,1.3l1.3,1.3
		l1.3-1.3c1.3,1.1,3,1.8,4.8,2v1.9h1.8V26c1.8-0.2,3.4-0.9,4.8-2l1.3,1.3l1.3-1.3l-1.3-1.3c1.1-1.3,1.8-3,2-4.8h1.9v-1.8H44.4z
		 M35.4,23.2c-3.4,0-6.1-2.7-6.1-6.1c0-3.4,2.7-6.1,6.1-6.1c3.4,0,6.1,2.7,6.1,6.1C41.6,20.5,38.8,23.2,35.4,23.2z"/>
</g>
<g>
	<path fill="none" stroke="#05A8F3" stroke-width="1.8232" stroke-miterlimit="10" d="M16.3,42.3H13v-2.1c-1.6-0.3-3.1-0.9-4.4-1.8
		l-1.5,1.5l-2.4-2.4l1.5-1.5c-0.9-1.3-1.6-2.8-1.8-4.4H2.4v-3.3h2.1c0.3-1.6,0.9-3.1,1.8-4.4l-1.5-1.5l2.4-2.4l1.5,1.5
		c1.3-0.9,2.8-1.6,4.4-1.8v-2.1h3.3v2.1c1.6,0.3,3.1,0.9,4.4,1.8l1.5-1.5l2.4,2.4L23.1,24c0.9,1.3,1.6,2.8,1.8,4.4H27v3.3h-2.1
		c-0.3,1.6-0.9,3.1-1.8,4.4l1.5,1.5l-2.4,2.4l-1.5-1.5c-1.3,0.9-2.8,1.6-4.4,1.8V42.3z M14.3,40.9H15V39l0.6-0.1
		c1.7-0.2,3.4-0.9,4.8-2l0.5-0.4l1.4,1.4l0.5-0.5l-1.4-1.4l0.4-0.5c1.1-1.4,1.8-3,2-4.8l0.1-0.6h1.9v-0.6h-1.9l-0.1-0.6
		c-0.2-1.7-0.9-3.4-2-4.8l-0.4-0.5l1.4-1.4L22.2,22l-1.4,1.4L20.4,23c-1.4-1.1-3-1.8-4.8-2L15,21v-1.9h-0.6V21L13.7,21
		c-1.7,0.2-3.4,0.9-4.8,2l-0.5,0.4L7.2,22l-0.5,0.5l1.4,1.4l-0.4,0.5c-1.1,1.4-1.8,3-2,4.8l-0.1,0.6H3.7v0.6h1.9l0.1,0.6
		c0.2,1.7,0.9,3.4,2,4.8l0.4,0.5l-1.4,1.4L7.2,38l1.4-1.4L9,37c1.4,1.1,3,1.8,4.8,2l0.6,0.1V40.9z M14.7,37.3c-4,0-7.3-3.3-7.3-7.3
		c0-4,3.3-7.3,7.3-7.3c4,0,7.3,3.3,7.3,7.3C21.9,34,18.7,37.3,14.7,37.3z M14.7,24.1c-3.3,0-5.9,2.7-5.9,5.9c0,3.3,2.7,5.9,5.9,5.9
		c3.3,0,5.9-2.7,5.9-5.9C20.6,26.7,17.9,24.1,14.7,24.1z"/>
	<path fill="#FFFFFF" d="M16.3,42.3H13v-2.1c-1.6-0.3-3.1-0.9-4.4-1.8l-1.5,1.5l-2.4-2.4l1.5-1.5c-0.9-1.3-1.6-2.8-1.8-4.4H2.4v-3.3
		h2.1c0.3-1.6,0.9-3.1,1.8-4.4l-1.5-1.5l2.4-2.4l1.5,1.5c1.3-0.9,2.8-1.6,4.4-1.8v-2.1h3.3v2.1c1.6,0.3,3.1,0.9,4.4,1.8l1.5-1.5
		l2.4,2.4L23.1,24c0.9,1.3,1.6,2.8,1.8,4.4H27v3.3h-2.1c-0.3,1.6-0.9,3.1-1.8,4.4l1.5,1.5l-2.4,2.4l-1.5-1.5
		c-1.3,0.9-2.8,1.6-4.4,1.8V42.3z M14.3,40.9H15V39l0.6-0.1c1.7-0.2,3.4-0.9,4.8-2l0.5-0.4l1.4,1.4l0.5-0.5l-1.4-1.4l0.4-0.5
		c1.1-1.4,1.8-3,2-4.8l0.1-0.6h1.9v-0.6h-1.9l-0.1-0.6c-0.2-1.7-0.9-3.4-2-4.8l-0.4-0.5l1.4-1.4L22.2,22l-1.4,1.4L20.4,23
		c-1.4-1.1-3-1.8-4.8-2L15,21v-1.9h-0.6V21L13.7,21c-1.7,0.2-3.4,0.9-4.8,2l-0.5,0.4L7.2,22l-0.5,0.5l1.4,1.4l-0.4,0.5
		c-1.1,1.4-1.8,3-2,4.8l-0.1,0.6H3.7v0.6h1.9l0.1,0.6c0.2,1.7,0.9,3.4,2,4.8l0.4,0.5l-1.4,1.4L7.2,38l1.4-1.4L9,37
		c1.4,1.1,3,1.8,4.8,2l0.6,0.1V40.9z M14.7,37.3c-4,0-7.3-3.3-7.3-7.3c0-4,3.3-7.3,7.3-7.3c4,0,7.3,3.3,7.3,7.3
		C21.9,34,18.7,37.3,14.7,37.3z M14.7,24.1c-3.3,0-5.9,2.7-5.9,5.9c0,3.3,2.7,5.9,5.9,5.9c3.3,0,5.9-2.7,5.9-5.9
		C20.6,26.7,17.9,24.1,14.7,24.1z"/>
</g>
<g>
	<path fill="none" stroke="#05A8F3" stroke-width="1.8232" stroke-miterlimit="10" d="M24.3,29c-0.2-1.9-1-3.7-2.1-5.1l1.4-1.4
		l-1.4-1.4l-1.4,1.4c-1.4-1.2-3.2-1.9-5.1-2.1v-2h-2v2c-1.9,0.2-3.7,1-5.1,2.1l-1.4-1.4l-1.4,1.4l1.4,1.4C6,25.3,5.2,27.1,5,29H3v2
		h2c0.2,1.9,1,3.7,2.1,5.1l-1.4,1.4l1.4,1.4l1.4-1.4c1.4,1.2,3.2,1.9,5.1,2.1v2h2v-2c1.9-0.2,3.7-1,5.1-2.1l1.4,1.4l1.4-1.4
		l-1.4-1.4c1.2-1.4,1.9-3.2,2.1-5.1h2v-2H24.3z M14.7,36.6c-3.6,0-6.6-2.9-6.6-6.6c0-3.6,2.9-6.6,6.6-6.6c3.6,0,6.6,2.9,6.6,6.6
		C21.3,33.6,18.3,36.6,14.7,36.6z"/>
	<path fill="#FFFFFF" d="M24.3,29c-0.2-1.9-1-3.7-2.1-5.1l1.4-1.4l-1.4-1.4l-1.4,1.4c-1.4-1.2-3.2-1.9-5.1-2.1v-2h-2v2
		c-1.9,0.2-3.7,1-5.1,2.1l-1.4-1.4l-1.4,1.4l1.4,1.4C6,25.3,5.2,27.1,5,29H3v2h2c0.2,1.9,1,3.7,2.1,5.1l-1.4,1.4l1.4,1.4l1.4-1.4
		c1.4,1.2,3.2,1.9,5.1,2.1v2h2v-2c1.9-0.2,3.7-1,5.1-2.1l1.4,1.4l1.4-1.4l-1.4-1.4c1.2-1.4,1.9-3.2,2.1-5.1h2v-2H24.3z M14.7,36.6
		c-3.6,0-6.6-2.9-6.6-6.6c0-3.6,2.9-6.6,6.6-6.6c3.6,0,6.6,2.9,6.6,6.6C21.3,33.6,18.3,36.6,14.7,36.6z"/>
</g>
</svg>
