<?xml version="1.0" encoding="utf-8"?>
<!-- Generator: Adobe Illustrator 18.1.1, SVG Export Plug-In . SVG Version: 6.00 Build 0)  -->
<!DOCTYPE svg PUBLIC "-//W3C//DTD SVG 1.1//EN" "http://www.w3.org/Graphics/SVG/1.1/DTD/svg11.dtd">
<svg version="1.1" id="Layer_1" xmlns="http://www.w3.org/2000/svg" xmlns:xlink="http://www.w3.org/1999/xlink" x="0px" y="0px"
	 viewBox="0 0 75 75" enable-background="new 0 0 75 75" xml:space="preserve">
<g>
	<path fill="#05A8F3" d="M67.1,74.3H7.5V0.5h59.6V74.3z M9.2,72.7h56.3V2.2H9.2V72.7z"/>
</g>
<g>
	<g>
		<path fill="#05A8F3" d="M60.2,26H14.4c-0.3,0-0.5-0.2-0.5-0.5V11.3c0-0.3,0.2-0.5,0.5-0.5h45.8c0.3,0,0.5,0.2,0.5,0.5v14.1
			C60.7,25.8,60.5,26,60.2,26z M14.9,24.9h44.8V11.9H14.9V24.9z"/>
	</g>
	<g>
		<g>
			<path fill="#05A8F3" d="M23.2,23.8c-1.4,0-2.8-0.6-3.8-1.6c-1-1-1.6-2.4-1.6-3.8c0-1.4,0.6-2.8,1.6-3.8c1-1,2.4-1.6,3.8-1.6
				c1.4,0,2.8,0.6,3.8,1.6c2.1,2.1,2.1,5.5,0,7.6C26,23.2,24.6,23.8,23.2,23.8z M23.2,14.1c-1.2,0-2.2,0.4-3.1,1.3
				c-0.8,0.8-1.3,1.9-1.3,3.1c0,1.2,0.4,2.2,1.3,3.1c0.8,0.8,1.9,1.3,3.1,1.3c1.2,0,2.2-0.4,3.1-1.3c1.7-1.7,1.7-4.4,0-6.1
				C25.4,14.5,24.4,14.1,23.2,14.1z"/>
		</g>
	</g>
	<g>
		<g>
			<path fill="#05A8F3" d="M56.3,16.2H34.9c-0.3,0-0.5-0.2-0.5-0.5c0-0.3,0.2-0.5,0.5-0.5h21.3c0.3,0,0.5,0.2,0.5,0.5
				C56.8,16,56.6,16.2,56.3,16.2z"/>
		</g>
		<g>
			<path fill="#05A8F3" d="M56.3,18.9H34.9c-0.3,0-0.5-0.2-0.5-0.5c0-0.3,0.2-0.5,0.5-0.5h21.3c0.3,0,0.5,0.2,0.5,0.5
				C56.8,18.7,56.6,18.9,56.3,18.9z"/>
		</g>
		<g>
			<path fill="#05A8F3" d="M56.3,21.7H34.9c-0.3,0-0.5-0.2-0.5-0.5c0-0.3,0.2-0.5,0.5-0.5h21.3c0.3,0,0.5,0.2,0.5,0.5
				C56.8,21.4,56.6,21.7,56.3,21.7z"/>
		</g>
	</g>
</g>
<g>
	<g>
		<path fill="#05A8F3" d="M60.2,43.5H14.4c-0.3,0-0.5-0.2-0.5-0.5V28.9c0-0.3,0.2-0.5,0.5-0.5h45.8c0.3,0,0.5,0.2,0.5,0.5V43
			C60.7,43.3,60.5,43.5,60.2,43.5z M14.9,42.5h44.8V29.4H14.9V42.5z"/>
	</g>
	<g>
		<g>
			<path fill="#05A8F3" d="M23.2,41.3c-1.4,0-2.8-0.6-3.8-1.6c-1-1-1.6-2.4-1.6-3.8c0-1.4,0.6-2.8,1.6-3.8c1-1,2.4-1.6,3.8-1.6
				c1.4,0,2.8,0.6,3.8,1.6c2.1,2.1,2.1,5.5,0,7.6C26,40.8,24.6,41.3,23.2,41.3z M23.2,31.6c-1.2,0-2.2,0.4-3.1,1.3
				c-0.8,0.8-1.3,1.9-1.3,3.1c0,1.2,0.4,2.2,1.3,3.1c0.8,0.8,1.9,1.3,3.1,1.3c1.2,0,2.2-0.4,3.1-1.3c1.7-1.7,1.7-4.4,0-6.1
				C25.4,32.1,24.4,31.6,23.2,31.6z"/>
		</g>
	</g>
	<g>
		<g>
			<path fill="#05A8F3" d="M56.3,33.7H34.9c-0.3,0-0.5-0.2-0.5-0.5c0-0.3,0.2-0.5,0.5-0.5h21.3c0.3,0,0.5,0.2,0.5,0.5
				C56.8,33.5,56.6,33.7,56.3,33.7z"/>
		</g>
		<g>
			<path fill="#05A8F3" d="M56.3,36.5H34.9c-0.3,0-0.5-0.2-0.5-0.5c0-0.3,0.2-0.5,0.5-0.5h21.3c0.3,0,0.5,0.2,0.5,0.5
				C56.8,36.2,56.6,36.5,56.3,36.5z"/>
		</g>
		<g>
			<path fill="#05A8F3" d="M56.3,39.2H34.9c-0.3,0-0.5-0.2-0.5-0.5c0-0.3,0.2-0.5,0.5-0.5h21.3c0.3,0,0.5,0.2,0.5,0.5
				C56.8,39,56.6,39.2,56.3,39.2z"/>
		</g>
	</g>
</g>
<g>
	<g>
		<path fill="#05A8F3" d="M60.2,61.1H14.4c-0.3,0-0.5-0.2-0.5-0.5V46.4c0-0.3,0.2-0.5,0.5-0.5h45.8c0.3,0,0.5,0.2,0.5,0.5v14.1
			C60.7,60.8,60.5,61.1,60.2,61.1z M14.9,60h44.8V47H14.9V60z"/>
	</g>
	<g>
		<g>
			<path fill="#05A8F3" d="M23.2,58.9c-1.4,0-2.8-0.6-3.8-1.6c-1-1-1.6-2.4-1.6-3.8c0-1.4,0.6-2.8,1.6-3.8c1-1,2.4-1.6,3.8-1.6
				c1.4,0,2.8,0.6,3.8,1.6c2.1,2.1,2.1,5.5,0,7.6C26,58.3,24.6,58.9,23.2,58.9z M23.2,49.2c-1.2,0-2.2,0.4-3.1,1.3
				c-0.8,0.8-1.3,1.9-1.3,3.1c0,1.2,0.4,2.2,1.3,3.1c0.8,0.8,1.9,1.3,3.1,1.3c1.2,0,2.2-0.4,3.1-1.3c1.7-1.7,1.7-4.4,0-6.1
				C25.4,49.6,24.4,49.2,23.2,49.2z"/>
		</g>
	</g>
	<g>
		<g>
			<path fill="#05A8F3" d="M56.3,51.3H34.9c-0.3,0-0.5-0.2-0.5-0.5c0-0.3,0.2-0.5,0.5-0.5h21.3c0.3,0,0.5,0.2,0.5,0.5
				C56.8,51,56.6,51.3,56.3,51.3z"/>
		</g>
		<g>
			<path fill="#05A8F3" d="M56.3,54H34.9c-0.3,0-0.5-0.2-0.5-0.5c0-0.3,0.2-0.5,0.5-0.5h21.3c0.3,0,0.5,0.2,0.5,0.5
				C56.8,53.8,56.6,54,56.3,54z"/>
		</g>
		<g>
			<path fill="#05A8F3" d="M56.3,56.8H34.9c-0.3,0-0.5-0.2-0.5-0.5c0-0.3,0.2-0.5,0.5-0.5h21.3c0.3,0,0.5,0.2,0.5,0.5
				C56.8,56.5,56.6,56.8,56.3,56.8z"/>
		</g>
	</g>
</g>
</svg>
